<svg xmlns="http://www.w3.org/2000/svg" viewBox="0 0 1183.76 791.58"><defs><style>.cls-1{fill:#fff;}.cls-2{fill:#24284d;}.cls-3{opacity:0.98;}.cls-4{fill:#740101;}.cls-5{font-size:186.26px;fill:#141414;font-family:Roboto-Bold, Roboto;font-weight:700;}.cls-6{fill:#6e6c6c;}.cls-7{fill:#24274c;}</style></defs><title>GRBB Membership Card 1</title><g id="Layer_2" data-name="Layer 2"><g id="Layer_1-2" data-name="Layer 1"><rect class="cls-1" x="0.24" y="1.62" width="1183.29" height="788.86"/><rect class="cls-2" width="1183.76" height="63.11"/><g class="cls-3"><path class="cls-1" d="M492.65,34.6a17.27,17.27,0,0,1-4.89,9.51,12.6,12.6,0,0,1-8.93,3.42,8.89,8.89,0,0,1-7.57-3.91,11.53,11.53,0,0,1-1.72-9.42l1.1-5.52a17.75,17.75,0,0,1,4.75-9.51A11.89,11.89,0,0,1,484,15.74a9.36,9.36,0,0,1,7.87,3.92,11.34,11.34,0,0,1,1.87,9.42Zm-3-5.56q.88-4.45-.91-7.16a6.07,6.07,0,0,0-5.42-2.71,7.08,7.08,0,0,0-5.4,2.64,14.13,14.13,0,0,0-3.17,6.83l-1.12,5.56q-.92,4.5.76,7.2a5.59,5.59,0,0,0,5.11,2.71,7.59,7.59,0,0,0,5.72-2.62,13.85,13.85,0,0,0,3.32-6.89Z"/><path class="cls-1" d="M526.79,33.41h-13l-2.71,13.67H507l6.18-30.9h19.1l-.66,3.29h-15l-2.15,10.65h13Z"/><path class="cls-1" d="M561.45,33.41h-13l-2.72,13.67h-4.09l6.17-30.9h19.1l-.66,3.29h-15L549.1,30.12h13Z"/><path class="cls-1" d="M580.54,47.08h-4.11l6.17-30.9h4.12Z"/><path class="cls-1" d="M621.1,37.59l0,.13A15,15,0,0,1,617,44.89a10.75,10.75,0,0,1-7.56,2.64,8.86,8.86,0,0,1-7.49-3.9,11.46,11.46,0,0,1-1.72-9.43l1.11-5.52a18.19,18.19,0,0,1,4.57-9.54,11.19,11.19,0,0,1,8.29-3.4,9.27,9.27,0,0,1,7.21,2.91,9,9,0,0,1,2.08,7.51l0,.1h-4A7.89,7.89,0,0,0,618.23,21,5.24,5.24,0,0,0,613.69,19a6.62,6.62,0,0,0-5.19,2.72,15.29,15.29,0,0,0-3.08,6.88l-1.13,5.56q-.88,4.43.69,7.24a5.22,5.22,0,0,0,4.87,2.81,6.22,6.22,0,0,0,4.51-1.61,12.34,12.34,0,0,0,2.81-5Z"/><path class="cls-1" d="M639.75,47.08h-4.12l6.18-30.9h4.12Z"/><path class="cls-1" d="M675.82,39.12H664l-4.3,8h-4.16l17.31-30.9h3.48l4.78,30.9h-4.18Zm-9.93-3.5h9.45l-1.87-13.73-.13,0Z"/><path class="cls-1" d="M701,43.79h13.52l-.66,3.29H696.26l6.18-30.9h4.09Z"/></g><rect class="cls-4" y="728.47" width="1183.76" height="63.11"/><text class="cls-5" transform="translate(68.22 641.83) rotate(0.05)">Membership</text><circle class="cls-6" cx="213.52" cy="235.28" r="45.57"/><path class="cls-6" d="M157.79,265.68a90.06,90.06,0,0,0-5.66,31.7c0,42,27.86,76.09,62.23,76.09s62.24-34.07,62.24-76.09a89.81,89.81,0,0,0-6.38-33.56,63.46,63.46,0,0,1-112.43,1.86Z"/><circle class="cls-7" cx="110.14" cy="243.76" r="36.91"/><circle class="cls-4" cx="318.45" cy="243.76" r="36.91"/><path class="cls-7" d="M148.1,335.54a100.66,100.66,0,0,1-7.39-38.17,104.51,104.51,0,0,1,.81-12.93A51.32,51.32,0,0,1,65,268.39a73.19,73.19,0,0,0-4.58,25.67c0,34,22.57,61.64,50.41,61.64C125.59,355.7,138.88,347.93,148.1,335.54Z"/><path class="cls-4" d="M364.37,266.88a51.33,51.33,0,0,1-77.16,17.69,104.24,104.24,0,0,1,.8,12.8,100.9,100.9,0,0,1-6.95,37.07c9.24,13,22.86,21.26,38.07,21.26,27.84,0,50.41-27.6,50.41-61.64A72.67,72.67,0,0,0,364.37,266.88Z"/><path class="cls-4" d="M302.63,371.28a126.3,126.3,0,0,1-185.08,2,58,58,0,0,1-6.73.4,58.84,58.84,0,0,1-10.15-.88,147.17,147.17,0,0,0,227.21.21,58.91,58.91,0,0,1-8.75.67A59.81,59.81,0,0,1,302.63,371.28Z"/><path class="cls-4" d="M127.3,190a126.31,126.31,0,0,1,166.91,2.8,56.33,56.33,0,0,1,36-4.24,147.22,147.22,0,0,0-175.7-43.68c9.32-10.8,19-20,19-20l-21.33-21.2c-32.34,30.58-53.55,84.88-53.55,84.88A56.46,56.46,0,0,1,127.3,190Z"/><path class="cls-4" d="M480,249.39c0,14.28.2,30.32-3.72,44.21s-13.1,21.12-27.58,21.12c-22.3,0-29.34-15.65-32.47-35a210.85,210.85,0,0,1-1.95-31.3c0-15.06.39-31.69,4.69-46.16,4.3-14.09,14.08-21.33,28.95-21.33,18.58,0,26.41,9.78,31.3,26.61l-16.43,6.84c-1.76-8.8-4.11-18-15.06-18-5.48,0-8,2.15-10.57,6.84-4.3,8-4.69,34.63-4.69,44.6,0,11.94.19,24.06,2.34,35.8,1.57,8,4.11,14.67,13.5,14.67,14.67,0,15.07-19,15.07-29.54v-9.58H448.14V244.3H480Z"/><path class="cls-4" d="M538.89,313,515,252.13V313H497.42V182.49H520.7c7,0,13.11.39,19,4.89,8.8,6.65,11.15,18.78,11.15,29.14,0,12.72-3.52,29.54-18.78,33.06L556.89,313ZM515,240.39c4.5,0,9.19-.2,12.71-3.13,4.89-4.11,6.07-11.54,6.07-17.61,0-5.28-.78-12.52-3.52-17.21-2.94-4.89-7.24-5.48-12.33-5.48H515Z"/><path class="cls-7" d="M639.82,182.49c21.91,0,28,15.45,28,34.82,0,7.24-.78,15.06-4.89,21.32-2.93,4.5-6.45,6.26-11.54,8,4.11,1.56,8.41,3.52,11.54,6.85,5.68,6.06,6.85,15.65,6.85,23.66,0,21.13-7.43,35.8-30.71,35.8H616V182.49ZM633.76,240c15.06,0,17-10,17-22.69,0-10.18-3.13-20.54-15.26-20.54h-2.94V240Zm-1.18,57.9c3.72,0,7.63,0,11-1.56,7.24-3.33,8-12.92,8-19.76,0-14.28-2.94-22.69-19-22.69Z"/><path class="cls-7" d="M747.21,278.34c0,22.5-4.89,36.38-30.32,36.38-23.86,0-29.73-14.86-29.73-35.79V182.49h17.21v95.85c0,9.58.78,19.76,13.11,19.76,12.91,0,12.52-10,12.52-19.76V182.49h17.21Z"/><path class="cls-7" d="M810.58,202.44c-4.3-3.32-8.8-5.87-14.28-5.87-10,0-15.84,8-15.84,17.41,0,24.06,36.38,30.13,36.38,66.12,0,18.19-10.75,34.62-30.32,34.62a29.72,29.72,0,0,1-19.17-6.26V291.05c5.29,3.92,10.37,6.85,17,6.85,10.37,0,15.46-8.22,15.46-17.8,0-27-36.58-31.1-36.58-65.92,0-18.59,9.58-33.26,29.53-33.26,7.24,0,11.55,1,18,4.31Z"/><path class="cls-7" d="M831.7,313V182.49h17.61V313Z"/><path class="cls-7" d="M913.86,313c-7.24-21.51-14.67-43-21.52-64.75-1.76-5.28-3.52-10.56-4.89-16-1.56-6.45-2.54-13.1-4.3-19.56,1,6.46,1.17,13.11,1.56,19.76,1.57,26.8,1.76,53.79,2.16,80.59H869.45V182.49h16.44c11.15,32.86,22.88,65.33,30.9,99.17-2.15-16.43-4.1-33.05-4.1-49.68V182.49h17.6V313Z"/><path class="cls-7" d="M950.24,313V182.49H997v14.87H967.84v41.46h25.82v14.87H967.84V298.1H997V313Z"/><path class="cls-7" d="M1056.46,202.44c-4.31-3.32-8.81-5.87-14.28-5.87-10,0-15.85,8-15.85,17.41,0,24.06,36.38,30.13,36.38,66.12,0,18.19-10.75,34.62-30.32,34.62a29.72,29.72,0,0,1-19.17-6.26V291.05c5.29,3.92,10.37,6.85,17,6.85,10.37,0,15.46-8.22,15.46-17.8,0-27-36.58-31.1-36.58-65.92,0-18.59,9.58-33.26,29.53-33.26,7.24,0,11.55,1,18,4.31Z"/><path class="cls-7" d="M1117.09,202.44c-4.3-3.32-8.8-5.87-14.28-5.87-10,0-15.84,8-15.84,17.41,0,24.06,36.38,30.13,36.38,66.12,0,18.19-10.76,34.62-30.32,34.62a29.71,29.71,0,0,1-19.17-6.26V291.05c5.28,3.92,10.37,6.85,17,6.85,10.37,0,15.45-8.22,15.45-17.8,0-27-36.58-31.1-36.58-65.92,0-18.59,9.59-33.26,29.54-33.26,7.24,0,11.54,1,18,4.31Z"/><path class="cls-6" d="M432.76,336.16c4.35,0,9,.17,12.55,1.93,5.12,2.52,6.53,8.41,6.53,12.36,0,5.72-2,10.43-10.5,13,11,1.93,12.55,7.06,12.55,13.79,0,4.63-1.15,9.59-7.05,12.62-4.09,2.1-8.45,2.35-13.44,2.35H420.34V336.16ZM432.51,361c10.37,0,11.26-4.71,11.26-10.26,0-5.3-.38-10-10.5-10h-5V361Zm0,26.82c10.88,0,13.18-4.37,13.18-10.68,0-5.63-2.56-11.52-12.8-11.52h-4.61v22.2Z"/><path class="cls-6" d="M536.59,392.25l-19.84-27.42v27.42H508V336.16h10.75c5,0,10.25,0,14.73,1.6,7.68,2.69,9.22,8.24,9.22,13.45,0,7.74-4,13.46-16.91,14.13l19.85,26.91ZM522,360.71c10.24,0,11.91-3.95,11.91-9.84,0-6.47-2-9.92-12.93-9.92h-4.22v19.76Z"/><path class="cls-6" d="M597.91,392.25V336.16h26.63V341H605.85v19.76H624v4.8H605.85v21.95h18.69v4.79Z"/><path class="cls-6" d="M704.68,392.25l-3.2-11.52H683.43l-3.2,11.52h-8.45l16.9-56.09h7.42l17,56.09Zm-10.11-35.82a67,67,0,0,1-2.43-13.21c-1.16,11.1-4.49,22-7.43,33H700.2Z"/><path class="cls-6" d="M787.64,392.25,770.49,364v28.26h-7.94V336.16h7.94v25.48l17.15-25.48h8.84L778,362.9l18.56,29.35Z"/><path class="cls-6" d="M854.85,341v19.76H873v4.8H854.85v26.74h-7.93V336.16h27.14V341Z"/><path class="cls-6" d="M951.51,392.25l-3.2-11.52h-18l-3.2,11.52h-8.45l16.9-56.09h7.43l17,56.09ZM941.4,356.43A67,67,0,0,1,939,343.22c-1.16,11.1-4.48,22-7.43,33H947Z"/><path class="cls-6" d="M1036.65,345a19,19,0,0,0-12.67-4.54c-7.82,0-12.3,4.37-12.3,9.16,0,12.95,29.2,12.11,29.2,27.67,0,8.07-8.33,15.81-21.39,15.81a31.5,31.5,0,0,1-13.44-2.94v-6.73a24.07,24.07,0,0,0,13.83,4.54c8.32,0,12.93-5,12.93-10,0-12.86-29.19-11.94-29.19-27.66,0-7.66,7.17-14.89,19.72-14.89a29.7,29.7,0,0,1,13.31,3Z"/><path class="cls-6" d="M1104.5,341v51.3h-7.94V341h-12.8v-4.79h33.55V341Z"/></g></g></svg>